#N canvas 827 239 527 327 12;
#X obj 130 500 vline~;
#X text 115 296 attack;
#X text 177 296 decay;
#X text 228 296 sustain;
#X text 285 296 release;
#X msg 94 322 1;
#X obj 130 544 outlet~;
#X msg 169 395 0;
#X obj 193 395 +;
#X msg 241 395 0;
#X obj 265 395 +;
#X floatatom 228 567 5 0 0 0 - - - 12;
#X obj 228 538 snapshot~;
#X obj 130 459 pack f f f f f f;
#X obj 426 297 loadbang;
#X obj 426 331 metro 100;
#X obj 426 364 s bang;
#X obj 316 500 r bang;
#X obj 20 23 cnv 15 271 200 empty empty empty 20 12 0 14 #696969 #e1e1e1 0;
#X obj 53 53 vsl 17 128 0 10000 0 0 empty empty empty 0 -9 0 10 #191919 #e1e1e1 #e1e1e1 0 1;
#X obj 115 53 vsl 17 128 0 10000 0 0 empty empty empty 0 -9 0 10 #191919 #e1e1e1 #e1e1e1 0 1;
#X obj 177 53 vsl 17 128 0 1 0 0 empty empty empty 0 -9 0 10 #191919 #e1e1e1 #e1e1e1 0 1;
#X obj 238 53 vsl 17 128 0 10000 0 0 empty empty empty 0 -9 0 10 #191919 #e1e1e1 #e1e1e1 0 1;
#X text 53 28 A;
#X text 115 28 D;
#X text 177 28 S;
#X text 238 28 R;
#X floatatom 49 184 3 0 0 0 - - A 12;
#X floatatom 111 184 3 0 0 0 - - D 12;
#X floatatom 173 184 3 0 0 0 - - S 12;
#X floatatom 234 184 3 0 0 0 - - R 12;
#X obj 123 322 r A;
#X obj 185 322 r D;
#X obj 242 322 r S;
#X obj 300 322 r R;
#X msg 123 350, f 6;
#X msg 185 350;
#X msg 242 350;
#X msg 300 350;
#X obj 345 579 print;
#X connect 0 0 6 0;
#X connect 0 0 12 0;
#X connect 5 0 13 0;
#X connect 7 0 13 2;
#X connect 8 0 10 0;
#X connect 8 0 13 3;
#X connect 9 0 13 4;
#X connect 10 0 13 5;
#X connect 12 0 11 0;
#X connect 12 0 39 0;
#X connect 13 0 0 0;
#X connect 14 0 15 0;
#X connect 15 0 16 0;
#X connect 17 0 12 0;
#X connect 19 0 27 0;
#X connect 20 0 28 0;
#X connect 21 0 29 0;
#X connect 22 0 30 0;
#X connect 31 0 35 0;
#X connect 32 0 36 0;
#X connect 33 0 37 0;
#X connect 34 0 38 0;
#X connect 35 0 13 1;
#X connect 35 0 8 0;
#X connect 36 0 8 1;
#X connect 37 0 7 0;
#X connect 38 0 10 1;
