#N canvas 1340 156 477 616 12;
#X obj 131 267 vline~;
#X text 112 13 attack;
#X text 175 13 decay;
#X text 223 13 sustain;
#X text 286 13 release;
#X msg 44 108 1;
#X obj 131 311 outlet~;
#X obj 204 142 +;
#X msg 242 142 0;
#X obj 276 142 +;
#X floatatom 229 334 5 0 0 0 - - - 12;
#X obj 229 305 snapshot~;
#X obj 131 206 pack f f f f f f;
#X obj 377 39 loadbang;
#X obj 377 106 s bang;
#X obj 317 267 r bang;
#X obj 120 39 inlet;
#X obj 176 39 inlet;
#X obj 237 39 inlet;
#X obj 301 39 inlet;
#X obj 221 268 print;
#X floatatom 120 67 5 0 10000 0 - - - 0;
#X floatatom 176 67 5 0 10000 0 - - - 0;
#X floatatom 237 67 5 0 1 0 - - - 0;
#X floatatom 301 67 5 0 10000 0 - - - 0;
#X obj 176 94 t b f;
#X obj 301 94 t b f;
#X obj 44 39 inlet;
#X text 30 13 trigger;
#X obj 44 67 b;
#X obj 46 206 loadbang;
#X msg 46 232 0;
#X msg 170 142 \$1;
#X obj 232 366 hsl 162 19 0 127 0 0 empty empty empty -2 -10 0 12 #fcfcfc #000000 #000000 0 1;
#X obj 16 367 scope~ 175 92 256 3 8 -1 1 0 0 0 0 30 30 30 190 190 190 160 160 160 0 empty;
#X obj 377 73 metro 10;
#X msg 131 236 \$1 \$2 \, \$3 \$4 \$2 \, \$5 \$6 \$6;
#X connect 0 0 6 0;
#X connect 0 0 11 0;
#X connect 0 0 34 0;
#X connect 5 0 12 0;
#X connect 7 0 9 0;
#X connect 7 0 12 3;
#X connect 8 0 12 4;
#X connect 9 0 12 5;
#X connect 10 0 33 0;
#X connect 11 0 10 0;
#X connect 12 0 36 0;
#X connect 13 0 35 0;
#X connect 15 0 11 0;
#X connect 16 0 21 0;
#X connect 17 0 22 0;
#X connect 18 0 23 0;
#X connect 19 0 24 0;
#X connect 21 0 7 0;
#X connect 21 0 12 1;
#X connect 22 0 25 0;
#X connect 23 0 32 0;
#X connect 24 0 26 0;
#X connect 25 0 7 0;
#X connect 25 1 7 1;
#X connect 26 0 9 0;
#X connect 26 1 9 1;
#X connect 27 0 29 0;
#X connect 29 0 5 0;
#X connect 30 0 31 0;
#X connect 31 0 0 0;
#X connect 32 0 12 2;
#X connect 35 0 14 0;
#X connect 36 0 0 0;
#X connect 36 0 20 0;
