#N canvas 1094 126 477 616 12;
#X obj 111 292 vline~;
#X text 92 38 attack;
#X text 155 38 decay;
#X text 203 38 sustain;
#X text 266 38 release;
#X msg 45 134 1;
#X obj 111 336 outlet~;
#X msg 150 167 0;
#X obj 184 167 +;
#X msg 222 167 0;
#X obj 256 167 +;
#X floatatom 209 359 5 0 0 0 - - - 12;
#X obj 209 330 snapshot~;
#X obj 111 231 pack f f f f f f;
#X obj 377 39 loadbang;
#X obj 377 73 metro 100;
#X obj 377 106 s bang;
#X obj 297 292 r bang;
#X obj 100 64 inlet;
#X obj 156 64 inlet;
#X obj 217 64 inlet;
#X obj 281 64 inlet;
#X msg 111 261 \$1;
#X obj 163 261 print;
#X floatatom 100 92 5 0 0 0 - - - 0;
#X floatatom 156 92 5 0 0 0 - - - 0;
#X floatatom 217 92 5 0 0 0 - - - 0;
#X floatatom 281 92 5 0 0 0 - - - 0;
#X obj 156 119 t b f;
#X obj 281 119 t b f;
#X obj 45 92 bang;
#X obj 45 64 inlet;
#X text 31 38 trigger;
#X connect 0 0 6 0;
#X connect 0 0 12 0;
#X connect 5 0 13 0;
#X connect 7 0 13 2;
#X connect 8 0 10 0;
#X connect 8 0 13 3;
#X connect 9 0 13 4;
#X connect 10 0 13 5;
#X connect 12 0 11 0;
#X connect 13 0 22 0;
#X connect 13 0 23 0;
#X connect 14 0 15 0;
#X connect 15 0 16 0;
#X connect 17 0 12 0;
#X connect 18 0 24 0;
#X connect 19 0 25 0;
#X connect 20 0 26 0;
#X connect 21 0 27 0;
#X connect 22 0 0 0;
#X connect 24 0 8 0;
#X connect 24 0 13 1;
#X connect 25 0 28 0;
#X connect 26 0 7 0;
#X connect 27 0 29 0;
#X connect 28 0 8 0;
#X connect 28 1 8 1;
#X connect 29 0 10 0;
#X connect 29 1 10 1;
#X connect 30 0 5 0;
#X connect 31 0 30 0;
