#N canvas 1362 111 682 427 12;
#X declare -path algorithms/;
#X obj 486 23 declare -path algorithms/;
#X obj 192 24 inlet;
#X obj 20 164 algo1~, f 19;
#X obj 192 58 route 0 1 2 3 4 5 6 7;
#X obj 182 164 algo2~, f 19;
#X obj 344 164 algo3~, f 19;
#X obj 506 164 algo4~, f 19;
#X obj 20 254 algo5~, f 19;
#X obj 182 254 algo6~, f 19;
#X obj 344 254 algo7~, f 19;
#X obj 506 254 algo8~, f 19;
#X obj 160 327 outlet~;
#X obj 430 327 outlet~;
#X obj 344 128 unpack f f f f f f f f;
#X obj 182 128 unpack f f f f f f f f;
#X obj 506 128 unpack f f f f f f f f;
#X obj 20 218 unpack f f f f f f f f;
#X obj 20 128 unpack f f f f f f f f;
#X obj 182 218 unpack f f f f f f f f;
#X obj 344 218 unpack f f f f f f f f;
#X obj 506 218 unpack f f f f f f f f;
#X obj 385 55 inlet~;
#X obj 444 55 inlet~;
#X floatatom 62 43 5 0 0 0 - - - 0;
#X connect 1 0 3 0;
#X connect 2 0 11 0;
#X connect 2 1 12 0;
#X connect 3 0 17 0;
#X connect 3 1 14 0;
#X connect 3 2 13 0;
#X connect 3 3 15 0;
#X connect 3 4 16 0;
#X connect 3 5 18 0;
#X connect 3 6 19 0;
#X connect 3 7 20 0;
#X connect 4 0 11 0;
#X connect 4 1 12 0;
#X connect 5 0 11 0;
#X connect 5 1 12 0;
#X connect 6 0 11 0;
#X connect 6 1 12 0;
#X connect 7 0 11 0;
#X connect 7 1 12 0;
#X connect 8 0 11 0;
#X connect 8 1 12 0;
#X connect 9 0 11 0;
#X connect 9 1 12 0;
#X connect 10 0 11 0;
#X connect 10 1 12 0;
#X connect 13 0 5 0;
#X connect 13 1 5 1;
#X connect 13 2 5 2;
#X connect 13 3 5 3;
#X connect 13 4 5 4;
#X connect 13 5 5 5;
#X connect 13 6 5 6;
#X connect 13 7 5 7;
#X connect 14 0 4 0;
#X connect 14 1 4 1;
#X connect 14 2 4 2;
#X connect 14 3 4 3;
#X connect 14 4 4 4;
#X connect 14 5 4 5;
#X connect 14 6 4 6;
#X connect 14 7 4 7;
#X connect 15 0 6 0;
#X connect 15 1 6 1;
#X connect 15 2 6 2;
#X connect 15 3 6 3;
#X connect 15 4 6 4;
#X connect 15 5 6 5;
#X connect 15 6 6 6;
#X connect 15 7 6 7;
#X connect 16 0 7 0;
#X connect 16 1 7 1;
#X connect 16 2 7 2;
#X connect 16 3 7 3;
#X connect 16 4 7 4;
#X connect 16 5 7 5;
#X connect 16 6 7 6;
#X connect 16 7 7 7;
#X connect 17 0 2 0;
#X connect 17 1 2 1;
#X connect 17 1 23 0;
#X connect 17 2 2 2;
#X connect 17 3 2 3;
#X connect 17 4 2 4;
#X connect 17 5 2 5;
#X connect 17 6 2 6;
#X connect 17 7 2 7;
#X connect 18 0 8 0;
#X connect 18 1 8 1;
#X connect 18 2 8 2;
#X connect 18 3 8 3;
#X connect 18 4 8 4;
#X connect 18 5 8 5;
#X connect 18 6 8 6;
#X connect 18 7 8 7;
#X connect 19 0 9 0;
#X connect 19 1 9 1;
#X connect 19 2 9 2;
#X connect 19 3 9 3;
#X connect 19 4 9 4;
#X connect 19 5 9 5;
#X connect 19 6 9 6;
#X connect 19 7 9 7;
#X connect 20 0 10 0;
#X connect 20 1 10 1;
#X connect 20 2 10 2;
#X connect 20 3 10 3;
#X connect 20 4 10 4;
#X connect 20 5 10 5;
#X connect 20 6 10 6;
#X connect 20 7 10 7;
#X connect 21 0 2 8;
#X connect 21 0 4 8;
#X connect 21 0 5 8;
#X connect 21 0 6 8;
#X connect 21 0 7 8;
#X connect 21 0 8 8;
#X connect 21 0 9 8;
#X connect 21 0 10 8;
#X connect 22 0 2 9;
#X connect 22 0 4 9;
#X connect 22 0 5 9;
#X connect 22 0 6 9;
#X connect 22 0 7 9;
#X connect 22 0 8 9;
#X connect 22 0 9 9;
#X connect 22 0 10 9;
