#N canvas 1362 111 682 427 12;
#X declare -path algorithms/;
#X obj 17 24 declare -path algorithms/;
#X obj 677 150 inlet;
#X obj 17 264 algo1~, f 25;
#X obj 207 264 algo2~, f 19;
#X obj 394 264 algo3~, f 19;
#X obj 581 264 algo4~, f 19;
#X obj 768 264 algo5~, f 19;
#X obj 955 264 algo6~, f 19;
#X obj 1142 264 algo7~, f 19;
#X obj 1329 264 algo8~, f 19;
#X obj 360 549 outlet~;
#X obj 1101 549 outlet~;
#X obj 677 194 unpack f f f f f f f f;
#X obj 1466 156 r~ adsrA;
#X obj 1279 156 r~ adsrA;
#X obj 1092 156 r~ adsrA;
#X obj 905 156 r~ adsrA;
#X obj 718 106 r~ adsrA;
#X obj 531 156 r~ adsrA;
#X obj 344 156 r~ adsrA;
#X obj 154 156 r~ adsrA;
#X obj 1485 183 r~ adsrB;
#X obj 1297 183 r~ adsrB;
#X obj 1110 183 r~ adsrB;
#X obj 923 183 r~ adsrB;
#X obj 736 133 r~ adsrB;
#X obj 549 183 r~ adsrB;
#X obj 362 183 r~ adsrB;
#X obj 172 183 r~ adsrB;
#X obj 75 363 snake~;
#X msg 140 407 1;
#X msg 165 407 0;
#X obj 270 363 snake~;
#X obj 270 448 *~ 0;
#X msg 335 407 1;
#X msg 360 407 0;
#X obj 75 483 snake~ out;
#X obj 270 483 snake~ out;
#X obj 446 363 snake~;
#X obj 446 448 *~ 0;
#X msg 511 407 1;
#X msg 536 407 0;
#X obj 641 363 snake~;
#X obj 641 448 *~ 0;
#X msg 706 407 1;
#X msg 731 407 0;
#X obj 446 483 snake~ out;
#X obj 641 483 snake~ out;
#X obj 828 363 snake~;
#X obj 828 448 *~ 0;
#X msg 893 407 1;
#X msg 918 407 0;
#X obj 1023 363 snake~;
#X obj 1023 448 *~ 0;
#X msg 1088 407 1;
#X msg 1113 407 0;
#X obj 828 483 snake~ out;
#X obj 1023 483 snake~ out;
#X obj 1205 363 snake~;
#X obj 1205 448 *~ 0;
#X msg 1270 407 1;
#X msg 1295 407 0;
#X obj 1400 363 snake~;
#X obj 1400 448 *~ 0;
#X msg 1465 407 1;
#X msg 1490 407 0;
#X obj 1205 483 snake~ out;
#X obj 1400 483 snake~ out;
#X obj 137 373 sel 0;
#X obj 332 373 sel 1;
#X obj 508 373 sel 2;
#X obj 703 373 sel 3;
#X obj 890 373 sel 4;
#X obj 1085 373 sel 5;
#X obj 1267 373 sel 6;
#X obj 1462 373 sel 7;
#X obj 736 310 r $algo;
#X obj 75 448 *~ 0;
#X connect 1 0 12 0;
#X connect 2 0 29 0;
#X connect 2 1 29 1;
#X connect 3 0 32 0;
#X connect 3 1 32 1;
#X connect 4 0 38 0;
#X connect 4 1 38 1;
#X connect 5 0 42 0;
#X connect 5 1 42 1;
#X connect 6 0 48 0;
#X connect 6 1 48 1;
#X connect 7 0 52 0;
#X connect 7 1 52 1;
#X connect 8 0 58 0;
#X connect 8 1 58 1;
#X connect 9 0 62 0;
#X connect 9 1 62 1;
#X connect 12 0 2 0;
#X connect 12 0 3 0;
#X connect 12 0 9 0;
#X connect 12 0 8 0;
#X connect 12 0 7 0;
#X connect 12 0 6 0;
#X connect 12 0 5 0;
#X connect 12 0 4 0;
#X connect 12 1 2 1;
#X connect 12 1 3 1;
#X connect 12 1 9 1;
#X connect 12 1 8 1;
#X connect 12 1 7 1;
#X connect 12 1 6 1;
#X connect 12 1 5 1;
#X connect 12 1 4 1;
#X connect 12 2 2 2;
#X connect 12 2 3 2;
#X connect 12 2 9 2;
#X connect 12 2 8 2;
#X connect 12 2 7 2;
#X connect 12 2 6 2;
#X connect 12 2 5 2;
#X connect 12 2 4 2;
#X connect 12 3 2 3;
#X connect 12 3 3 3;
#X connect 12 3 4 3;
#X connect 12 3 9 3;
#X connect 12 3 8 3;
#X connect 12 3 7 3;
#X connect 12 3 6 3;
#X connect 12 3 5 3;
#X connect 12 4 2 4;
#X connect 12 4 3 4;
#X connect 12 4 9 4;
#X connect 12 4 8 4;
#X connect 12 4 7 4;
#X connect 12 4 6 4;
#X connect 12 4 5 4;
#X connect 12 4 4 4;
#X connect 12 5 2 5;
#X connect 12 5 3 5;
#X connect 12 5 9 5;
#X connect 12 5 8 5;
#X connect 12 5 7 5;
#X connect 12 5 6 5;
#X connect 12 5 5 5;
#X connect 12 5 4 5;
#X connect 12 6 2 6;
#X connect 12 6 3 6;
#X connect 12 6 9 6;
#X connect 12 6 8 6;
#X connect 12 6 7 6;
#X connect 12 6 6 6;
#X connect 12 6 5 6;
#X connect 12 6 4 6;
#X connect 12 7 2 7;
#X connect 12 7 3 7;
#X connect 12 7 9 7;
#X connect 12 7 8 7;
#X connect 12 7 7 7;
#X connect 12 7 6 7;
#X connect 12 7 5 7;
#X connect 12 7 4 7;
#X connect 13 0 9 8;
#X connect 14 0 8 8;
#X connect 15 0 7 8;
#X connect 16 0 6 8;
#X connect 17 0 5 8;
#X connect 18 0 4 8;
#X connect 19 0 3 8;
#X connect 20 0 2 8;
#X connect 21 0 9 9;
#X connect 22 0 8 9;
#X connect 23 0 7 9;
#X connect 24 0 6 9;
#X connect 25 0 5 9;
#X connect 26 0 4 9;
#X connect 27 0 3 9;
#X connect 28 0 2 9;
#X connect 29 0 77 0;
#X connect 30 0 77 1;
#X connect 31 0 77 1;
#X connect 32 0 33 0;
#X connect 33 0 37 0;
#X connect 34 0 33 1;
#X connect 35 0 33 1;
#X connect 36 0 10 0;
#X connect 36 1 11 0;
#X connect 37 0 10 0;
#X connect 37 1 11 0;
#X connect 38 0 39 0;
#X connect 39 0 46 0;
#X connect 40 0 39 1;
#X connect 41 0 39 1;
#X connect 42 0 43 0;
#X connect 43 0 47 0;
#X connect 44 0 43 1;
#X connect 45 0 43 1;
#X connect 46 0 10 0;
#X connect 46 1 11 0;
#X connect 47 0 10 0;
#X connect 47 1 11 0;
#X connect 48 0 49 0;
#X connect 49 0 56 0;
#X connect 50 0 49 1;
#X connect 51 0 49 1;
#X connect 52 0 53 0;
#X connect 53 0 57 0;
#X connect 54 0 53 1;
#X connect 55 0 53 1;
#X connect 56 0 10 0;
#X connect 56 1 11 0;
#X connect 57 0 10 0;
#X connect 57 1 11 0;
#X connect 58 0 59 0;
#X connect 59 0 66 0;
#X connect 60 0 59 1;
#X connect 61 0 59 1;
#X connect 62 0 63 0;
#X connect 63 0 67 0;
#X connect 64 0 63 1;
#X connect 65 0 63 1;
#X connect 66 0 10 0;
#X connect 66 1 11 0;
#X connect 67 0 10 0;
#X connect 67 1 11 0;
#X connect 68 0 30 0;
#X connect 68 1 31 0;
#X connect 69 0 34 0;
#X connect 69 1 35 0;
#X connect 70 0 40 0;
#X connect 70 1 41 0;
#X connect 71 0 44 0;
#X connect 71 1 45 0;
#X connect 72 0 50 0;
#X connect 72 1 51 0;
#X connect 73 0 54 0;
#X connect 73 1 55 0;
#X connect 74 0 60 0;
#X connect 74 1 61 0;
#X connect 75 0 64 0;
#X connect 75 1 65 0;
#X connect 76 0 68 0;
#X connect 76 0 69 0;
#X connect 76 0 70 0;
#X connect 76 0 71 0;
#X connect 76 0 72 0;
#X connect 76 0 73 0;
#X connect 76 0 74 0;
#X connect 76 0 75 0;
#X connect 77 0 36 0;
