#N canvas 610 151 1398 984 12;
#X declare -path cyclone;
#X declare -path else;
#X obj 156 577 operator;
#X obj 90 453 operator;
#X obj 222 453 operator;
#X obj 237 394 operator;
#X text 200 601 C;
#X text 134 478 A;
#X text 265 478 B I;
#X text 278 419 B II;
#X obj 187 348 r note;
#X obj 172 540 +;
#X obj 239 651 outlet~;
#X obj 305 651 outlet~;
#X text 214 650 X;
#X text 360 650 Y;
#X text 182 308 ALGO 1;
#X obj 24 348 r fbk;
#X obj 498 516 operator;
#X obj 498 453 operator;
#X obj 644 516 operator;
#X obj 644 453 operator;
#X text 542 540 C;
#X text 542 478 A;
#X text 687 540 B I;
#X text 685 478 B II;
#X obj 595 356 r note;
#X obj 581 590 outlet~;
#X obj 727 590 outlet~;
#X text 556 589 X;
#X text 782 589 Y;
#X obj 644 356 r fbk;
#X text 590 316 ALGO 2;
#X obj 888 505 operator;
#X obj 998 426 operator;
#X obj 1160 505 operator;
#X obj 1016 505 operator;
#X text 888 529 C;
#X text 1085 452 A;
#X text 1160 529 B I;
#X text 1057 529 B II;
#X obj 1031 356 r note;
#X obj 971 590 outlet~;
#X obj 1243 590 outlet~;
#X text 946 589 X;
#X text 1298 589 Y;
#X obj 985 356 r fbk;
#X text 1069 316 ALGO 3;
#X obj 971 553 +~;
#X obj 141 348 r lvA;
#X obj 320 348 r lvB;
#X obj 547 356 r lvA;
#X obj 763 356 r lvB;
#X obj 1152 356 r lvA;
#X obj 1262 356 r lvB;
#X obj 74 348 r ratioA;
#X obj 366 394 r ratioBI;
#X obj 244 348 r ratioBII;
#X obj 222 516 r ratioC;
#X obj 482 356 r ratioA;
#X obj 784 394 r ratioBI;
#X obj 693 356 r ratioBII;
#X obj 438 414 r ratioC;
#X obj 1085 356 r ratioA;
#X obj 1312 356 r ratioBI;
#X obj 1195 356 r ratioBII;
#X obj 922 356 r ratioC;
#X obj 596 892 operator;
#X obj 706 813 operator;
#X obj 868 892 operator;
#X obj 724 892 operator;
#X text 596 916 C;
#X text 793 839 A;
#X text 868 916 B I;
#X text 765 916 B II;
#X obj 679 977 outlet~;
#X obj 951 977 outlet~;
#X text 654 976 X;
#X text 1006 976 Y;
#X obj 679 940 +~;
#X obj 839 713 knob 50 0 127 0 0 empty empty #191919 #696969 #e1e1e1 1 0 0 0 1 270 0 0 0;
#X floatatom 784 743 5 0.25 16 0 - - - 12;
#X floatatom 735 743 5 0 0 0 - - - 12;
#X floatatom 686 743 5 0 0 0 - - - 12;
#X floatatom 646 744 5 0.25 16 0 - - - 12;
#X floatatom 903 769 5 0.25 16 0 - - - 12;
#X floatatom 1020 769 5 0.25 16 0 - - - 12;
#X floatatom 1005 705 5 0 0 0 - - - 12;
#X obj 793 1020 mix2~;
#X obj 818 1241 dac~;
#X obj 801 258 declare -path cyclone;
#X obj 802 283 declare -path else;
#X obj 494 1091 scope~ 200 100 39 3 8 -5 5 0 0 0 0 30 30 30 190 190 190 160 160 160 0 empty;
#X floatatom 495 1012 5 0 0 0 - - - 0;
#X connect 0 1 10 0;
#X connect 1 0 9 0;
#X connect 2 0 9 1;
#X connect 2 1 11 0;
#X connect 3 0 2 1;
#X connect 8 0 1 2;
#X connect 8 0 2 2;
#X connect 8 0 0 2;
#X connect 8 0 3 2;
#X connect 9 0 0 1;
#X connect 15 0 1 0;
#X connect 16 1 25 0;
#X connect 17 0 16 1;
#X connect 18 1 26 0;
#X connect 19 0 18 1;
#X connect 24 0 17 2;
#X connect 24 0 18 2;
#X connect 24 0 19 2;
#X connect 24 0 16 2;
#X connect 29 0 19 0;
#X connect 31 1 46 0;
#X connect 32 0 31 1;
#X connect 32 0 34 1;
#X connect 32 0 33 1;
#X connect 33 1 41 0;
#X connect 34 1 46 1;
#X connect 39 0 32 2;
#X connect 39 0 33 2;
#X connect 39 0 34 2;
#X connect 39 0 31 2;
#X connect 44 0 32 0;
#X connect 46 0 40 0;
#X connect 47 0 1 5;
#X connect 48 0 3 5;
#X connect 48 0 2 5;
#X connect 49 0 17 5;
#X connect 50 0 19 5;
#X connect 50 0 18 5;
#X connect 51 0 32 5;
#X connect 52 0 34 5;
#X connect 52 0 33 5;
#X connect 53 0 1 3;
#X connect 54 0 2 3;
#X connect 55 0 3 3;
#X connect 56 0 0 3;
#X connect 57 0 17 3;
#X connect 58 0 18 3;
#X connect 59 0 19 3;
#X connect 60 0 16 3;
#X connect 61 0 32 3;
#X connect 62 0 33 3;
#X connect 63 0 34 3;
#X connect 64 0 31 3;
#X connect 65 1 77 0;
#X connect 66 0 68 1;
#X connect 66 0 67 4;
#X connect 66 0 65 1;
#X connect 67 1 74 0;
#X connect 67 1 86 1;
#X connect 68 1 77 1;
#X connect 77 0 73 0;
#X connect 77 0 86 0;
#X connect 77 0 90 0;
#X connect 78 0 66 5;
#X connect 79 0 66 3;
#X connect 80 0 68 2;
#X connect 80 0 66 2;
#X connect 80 0 67 2;
#X connect 80 0 65 2;
#X connect 81 0 66 0;
#X connect 82 0 65 3;
#X connect 83 0 68 3;
#X connect 84 0 67 3;
#X connect 85 0 67 5;
#X connect 85 0 68 5;
#X connect 86 0 87 0;
#X connect 86 0 87 1;
#X connect 86 1 87 1;
#X connect 86 1 87 0;
#X connect 91 0 90 0;
