#N canvas 827 239 734 565 12;
#X obj 199 336 ADSR~, f 13;
#X obj 276 399 *~;
#X obj 199 177 inlet;
#X obj 218 205 inlet;
#X obj 237 237 inlet;
#X obj 256 270 inlet;
#X obj 276 301 inlet;
#X text 256 204 A;
#X text 276 237 D;
#X text 296 269 S;
#X text 314 300 R;
#X text 199 155 trigger;
#X obj 358 336 inlet;
#X text 358 313 level;
#X obj 276 448 outlet~;
#X obj 202 492 scope~ 200 100 256 3 128 -1 1 0 0 0 0 225 225 225 25 25 25 105 105 105 0 empty;
#X floatatom 477 373 5 0 0 0 - - - 12;
#X connect 0 0 1 0;
#X connect 1 0 14 0;
#X connect 1 0 15 0;
#X connect 2 0 0 0;
#X connect 3 0 0 1;
#X connect 4 0 0 2;
#X connect 5 0 0 3;
#X connect 6 0 0 4;
#X connect 12 0 1 1;
#X connect 12 0 16 0;
