#N canvas 827 239 734 565 12;
#X obj 276 343 *~;
#X obj 382 225 r $mix;
#X obj 495 150 r $attack;
#X obj 511 176 r $decay;
#X obj 527 202 r $sustain;
#X obj 544 229 r $release;
#X obj 119 32 r $fbk;
#X obj 170 32 r $ratioA;
#X obj 235 32 r $levelA;
#X obj 564 32 r $ratioB1;
#X obj 499 32 r $levelB;
#X obj 427 32 r $ratioB2;
#X obj 361 32 r $ratioC;
#X obj 40 58 s $note;
#X obj 478 124 r $note;
#X obj 304 32 r $note;
#X obj 276 142 pack f f f f f f f f;
#X obj 335 74 bng 25 250 50 0 empty empty empty 17 7 0 10 #191919 #e1e1e1 #e1e1e1;
#X obj 324 476 s~ $effectSend;
#X obj 40 32 keyb0ard;
#X obj 276 185 algorithm-selector;
#X obj 276 285 splitter;
#X obj 668 268 ADSR~, f 13;
#X obj 818 268 ADSR~, f 13;
#X obj 685 145 r $attackA;
#X obj 835 145 r $attackB;
#X obj 706 173 r $decayA;
#X obj 856 173 r $decayB;
#X obj 725 202 r $sustainA;
#X obj 875 202 r $sustainB;
#X obj 745 233 r $releaseA;
#X obj 895 233 r $releaseB;
#X obj 668 115 r $note;
#X obj 816 115 r $note;
#X obj 668 300 s~ adsrA;
#X obj 818 300 s~ adsrB;
#X obj 212 476 s~ $output;
#X obj 276 383 pan2~;
#X obj 266 424 snake~ in;
#X obj 324 343 r $pan;
#X obj 478 287 amp~;
#X obj 561 257 r $level;
#X connect 0 0 37 0;
#X connect 1 0 21 2;
#X connect 2 0 40 1;
#X connect 3 0 40 2;
#X connect 4 0 40 3;
#X connect 5 0 40 4;
#X connect 6 0 16 0;
#X connect 6 0 17 0;
#X connect 7 0 16 1;
#X connect 7 0 17 0;
#X connect 8 0 16 2;
#X connect 8 0 17 0;
#X connect 9 0 16 7;
#X connect 9 0 17 0;
#X connect 10 0 16 6;
#X connect 10 0 17 0;
#X connect 11 0 16 5;
#X connect 11 0 17 0;
#X connect 12 0 16 4;
#X connect 12 0 17 0;
#X connect 14 0 40 0;
#X connect 15 0 16 3;
#X connect 15 0 17 0;
#X connect 16 0 20 0;
#X connect 17 0 16 0;
#X connect 19 0 13 0;
#X connect 20 0 21 0;
#X connect 20 1 21 1;
#X connect 21 0 0 0;
#X connect 22 0 34 0;
#X connect 23 0 35 0;
#X connect 24 0 22 1;
#X connect 25 0 23 1;
#X connect 26 0 22 2;
#X connect 27 0 23 2;
#X connect 28 0 22 3;
#X connect 29 0 23 3;
#X connect 30 0 22 4;
#X connect 31 0 23 4;
#X connect 32 0 22 0;
#X connect 33 0 23 0;
#X connect 37 0 38 0;
#X connect 37 1 38 1;
#X connect 38 0 36 0;
#X connect 38 0 18 0;
#X connect 39 0 37 1;
#X connect 40 0 0 1;
#X connect 41 0 40 5;
