#N canvas 827 239 734 565 12;
#X obj 326 589 mono.rev~;
#X obj 326 374 fbdelay~;
#X obj 322 247 chorus~;
#X obj 524 181 r chorusSend;
#X obj 311 181 r $chorusRate;
#X obj 413 181 r $chorusDepth;
#X obj 200 181 r~ $effectSend;
#X obj 248 291 +~;
#X obj 285 331 norm~;
#X obj 345 331 r $delayTime;
#X obj 442 331 r $decayTime;
#X obj 248 419 +~;
#X obj 285 459 norm~;
#X obj 200 498 +~;
#X obj 285 544 norm~;
#X obj 813 226 stereo.rev~;
#X connect 1 0 11 1;
#X connect 2 0 7 1;
#X connect 3 0 2 3;
#X connect 4 0 2 1;
#X connect 5 0 2 2;
#X connect 6 0 7 0;
#X connect 6 0 2 0;
#X connect 6 0 13 0;
#X connect 7 0 8 0;
#X connect 7 0 11 0;
#X connect 8 0 1 0;
#X connect 9 0 1 1;
#X connect 10 0 1 2;
#X connect 11 0 12 0;
#X connect 12 0 13 1;
#X connect 13 0 14 0;
#X connect 14 0 0 0;
