#N canvas -1844 534 812 501 12;
#X obj 157 22 key;
#X obj 57 156 sel 119 120;
#X obj 94 199 + 1;
#X obj 57 199 - 1;
#X msg 113 256 60;
#X msg 153 256 61;
#X msg 193 256 62;
#X msg 233 256 63;
#X msg 273 256 64;
#X msg 313 256 65;
#X msg 353 256 66;
#X msg 393 256 67;
#X msg 433 256 68;
#X msg 473 256 69;
#X msg 513 256 70;
#X msg 553 256 71;
#X msg 593 256 72;
#X msg 633 256 73;
#X msg 673 256 74;
#X obj 387 401 mtof;
#X obj 387 460 outlet;
#X floatatom 387 371 5 0 0 0 - - - 0;
#X floatatom 387 432 6 0 0 0 - - - 0;
#X obj 185 22 keyup;
#X msg 212 81 0;
#X obj 212 56 b;
#X floatatom 212 106 5 0 0 0 - - - 0;
#X floatatom 387 314 5 0 0 0 - - - 0;
#X obj 212 131 t b f;
#X obj 212 157 -;
#X obj 212 213 sel 113 122 115 101 100 102 116 103 121 104 117 106 107 111 108 0, f 66;
#X msg 753 256 0;
#X obj 26 22 loadbang;
#X msg 26 49 3;
#X obj 26 231 f;
#X floatatom 26 257 5 0 0 0 - - - 0;
#X text 374 29 TO-DO - Add portamento - Add polyphony (12 voices \, one for each octave note? Requires remodeling of the patch \, maybe to add somewhere else?);
#X msg 713 256 75;
#X floatatom 212 184 5 0 0 0 - - - 0;
#X obj 387 341 expr $i1+12*($i2-3);
#X connect 0 0 1 0;
#X connect 0 0 29 0;
#X connect 1 0 3 0;
#X connect 1 0 34 0;
#X connect 1 1 2 0;
#X connect 1 1 34 0;
#X connect 2 0 34 1;
#X connect 3 0 34 1;
#X connect 4 0 27 0;
#X connect 5 0 27 0;
#X connect 6 0 27 0;
#X connect 7 0 27 0;
#X connect 8 0 27 0;
#X connect 9 0 27 0;
#X connect 10 0 27 0;
#X connect 11 0 27 0;
#X connect 12 0 27 0;
#X connect 13 0 27 0;
#X connect 14 0 27 0;
#X connect 15 0 27 0;
#X connect 16 0 27 0;
#X connect 17 0 27 0;
#X connect 18 0 27 0;
#X connect 19 0 22 0;
#X connect 21 0 19 0;
#X connect 22 0 20 0;
#X connect 24 0 26 0;
#X connect 25 0 24 0;
#X connect 26 0 28 0;
#X connect 27 0 39 0;
#X connect 28 0 29 0;
#X connect 28 1 29 1;
#X connect 29 0 38 0;
#X connect 30 0 4 0;
#X connect 30 1 5 0;
#X connect 30 2 6 0;
#X connect 30 3 7 0;
#X connect 30 4 8 0;
#X connect 30 5 9 0;
#X connect 30 6 10 0;
#X connect 30 7 11 0;
#X connect 30 8 12 0;
#X connect 30 9 13 0;
#X connect 30 10 14 0;
#X connect 30 11 15 0;
#X connect 30 12 16 0;
#X connect 30 13 17 0;
#X connect 30 14 18 0;
#X connect 30 15 37 0;
#X connect 30 16 31 0;
#X connect 32 0 33 0;
#X connect 33 0 34 0;
#X connect 34 0 3 0;
#X connect 34 0 2 0;
#X connect 34 0 35 0;
#X connect 35 0 39 1;
#X connect 37 0 27 0;
#X connect 38 0 30 0;
#X connect 39 0 21 0;
