#N canvas -1589 758 1000 609 12;
#X obj 446 100 hradio 18 1 0 8 $algo empty empty 0 -10 0 12 #fcfcfc #000000 #000000 0;
#X obj 268 526 algorithm-selector, f 21;
#X obj 443 162 hsl 162 19 0 1 0 0 $mix empty empty -2 -10 0 12 #fcfcfc #000000 #000000 0 1;
#X text 543 138 X-Y Mix;
#X text 534 75 Algorithm;
#X obj 470 686 ADSR~, f 13;
#X text 823 46 Amplifier;
#X obj 685 522 ADSR~, f 13;
#X obj 835 522 ADSR~, f 13;
#X text 721 133 Envelope A;
#X text 897 133 Envelope B;
#X obj 509 233 keyb0ard;
#X obj 768 22 else/knob 25 0 127 0 0 $attack empty #dfdfdf #7c7c7c black 1 0 0 0 1 320 0 0 0;
#X obj 798 22 else/knob 25 0 127 0 0 $decay empty #dfdfdf #7c7c7c black 1 0 0 0 1 320 0 0 0;
#X obj 828 22 else/knob 25 0 1 0 0 $sustain empty #dfdfdf #7c7c7c black 1 0 0 0 1 320 0 0 0;
#X obj 858 22 else/knob 25 0 5000 0 0 $release empty #dfdfdf #7c7c7c black 1 0 0 0 1 320 0 0 0;
#X obj 683 109 else/knob 25 0 127 0 0 $attackA empty #dfdfdf #7c7c7c black 1 0 0 0 1 320 0 0 0;
#X obj 713 109 else/knob 25 0 127 0 0 $decayA empty #dfdfdf #7c7c7c black 1 0 0 0 1 320 0 0 0;
#X obj 743 109 else/knob 25 0 1 0 0 $sustainA empty #dfdfdf #7c7c7c black 1 0 0 0 1 320 0 0 0;
#X obj 773 109 else/knob 25 0 5000 0 0 $releaseA empty #dfdfdf #7c7c7c black 1 0 0 0 1 320 0 0 0;
#X obj 858 109 else/knob 25 0 127 0 0 $attackB empty #dfdfdf #7c7c7c black 1 0 0 0 1 320 0 0 0;
#X obj 888 109 else/knob 25 0 127 0 0 $decayB empty #dfdfdf #7c7c7c black 1 0 0 0 1 320 0 0 0;
#X obj 918 109 else/knob 25 0 1 0 0 $sustainB empty #dfdfdf #7c7c7c black 1 0 0 0 1 320 0 0 0;
#X obj 948 109 else/knob 25 0 5000 0 0 $releaseB empty #dfdfdf #7c7c7c black 1 0 0 0 1 320 0 0 0;
#X text 35 57 Operator C;
#X obj 54 88 else/knob 40 0.25 16 0 0.25 $ratioC empty #dfdfdf #7c7c7c black 1 0 19 1 1 320 0 0 0.25;
#X text 139 57 Operator A;
#X text 55 121 Ratio;
#X obj 129 114 else/knob 40 0.25 16 0 0.25 $ratioA empty #dfdfdf #7c7c7c black 1 0 19 1 1 320 0 0 0.25;
#X text 130 147 Ratio;
#X obj 179 114 else/knob 40 0 127 0 0 $levelA empty #dfdfdf #7c7c7c black 1 0 0 0 1 320 0 0 0;
#X text 180 147 Level;
#X obj 264 88 else/knob 40 0 127 0 0 $ratioB1 empty #dfdfdf #7c7c7c black 1 0 19 1 1 320 0 0 0;
#X text 265 121 Ratio;
#X obj 314 114 else/knob 40 0 1 0 0 $levelB empty #dfdfdf #7c7c7c black 1 0 0 0 1 320 0 0 0;
#X text 314 147 Level;
#X text 269 57 Operator B1;
#X obj 265 149 else/knob 40 0.25 16 0 0.25 $ratioB2 empty #dfdfdf #7c7c7c black 1 0 19 1 1 320 0 0 0.25;
#X text 265 181 Ratio;
#X text 265 204 Operator B2;
#X obj 52 185 else/knob 40 0 10 0 0 $fbk empty #dfdfdf #7c7c7c black 1 0 0 0 1 320 0 0 0;
#X text 32 218 Feedback;
#X obj 133 438 b, f 3;
#X obj 894 248 output~;
#X obj 323 682 +~;
#X obj 286 617 expr 1 - $f1;
#X obj 268 646 *~;
#X obj 391 646 *~;
#X obj 323 728 *~;
#X obj 668 207 scope~ 200 100 20 3 128 -1 1 0 0 0 0 225 225 225 25 25 25 105 105 105 0 empty;
#X floatatom 668 189 5 0 0 0 - - - 12;
#X obj 336 562 r $mix;
#X obj 702 399 r $attackA;
#X obj 852 399 r $attackB;
#X obj 720 427 r $decayA;
#X obj 870 427 r $decayB;
#X obj 737 456 r $sustainA;
#X obj 887 456 r $sustainB;
#X obj 755 487 r $releaseA;
#X obj 905 487 r $releaseB;
#X obj 487 568 r $attack;
#X obj 505 596 r $decay;
#X obj 522 625 r $sustain;
#X obj 540 656 r $release;
#X obj 133 368 r $fbk;
#X obj 184 368 r $ratioA;
#X obj 249 368 r $levelA;
#X obj 578 368 r $ratioB1;
#X obj 513 368 r $levelB;
#X obj 441 368 r $ratioB2;
#X obj 375 368 r $ratioC;
#X obj 509 259 s $note;
#X obj 685 369 r $note;
#X obj 833 369 r $note;
#X obj 470 540 r $note;
#X obj 318 368 r $note;
#X obj 323 758 s~ $output;
#X obj 981 170 r~ $output;
#X obj 268 478 pack f f f f f f f f;
#X obj 685 554 s~ adsrA;
#X obj 835 554 s~ adsrB;
#X connect 1 0 46 0;
#X connect 1 1 47 0;
#X connect 5 0 48 1;
#X connect 7 0 79 0;
#X connect 8 0 80 0;
#X connect 11 0 71 0;
#X connect 42 0 78 0;
#X connect 44 0 48 0;
#X connect 45 0 46 1;
#X connect 46 0 44 0;
#X connect 47 0 44 1;
#X connect 48 0 76 0;
#X connect 50 0 49 0;
#X connect 51 0 45 0;
#X connect 51 0 47 1;
#X connect 52 0 7 1;
#X connect 53 0 8 1;
#X connect 54 0 7 2;
#X connect 55 0 8 2;
#X connect 56 0 7 3;
#X connect 57 0 8 3;
#X connect 58 0 7 4;
#X connect 59 0 8 4;
#X connect 60 0 5 1;
#X connect 61 0 5 2;
#X connect 62 0 5 3;
#X connect 63 0 5 4;
#X connect 64 0 42 0;
#X connect 64 0 78 0;
#X connect 65 0 42 0;
#X connect 65 0 78 1;
#X connect 66 0 42 0;
#X connect 66 0 78 2;
#X connect 67 0 42 0;
#X connect 67 0 78 7;
#X connect 68 0 42 0;
#X connect 68 0 78 6;
#X connect 69 0 42 0;
#X connect 69 0 78 5;
#X connect 70 0 42 0;
#X connect 70 0 78 4;
#X connect 72 0 7 0;
#X connect 73 0 8 0;
#X connect 74 0 5 0;
#X connect 75 0 42 0;
#X connect 75 0 78 3;
#X connect 77 0 43 0;
#X connect 77 0 43 1;
#X connect 77 0 49 0;
#X connect 78 0 1 0;
