#N canvas 1092 275 1000 609 12;
#X obj 56 219 hradio 19 1 0 8 empty empty empty 0 -10 0 12 #fcfcfc #000000 #000000 0;
#X obj 208 264 algorithm-selector;
#X obj 208 296 *~;
#X obj 331 296 *~ 1-\$2;
#X obj 397 264 hsl 162 19 0 1 0 0 empty empty empty -2 -10 0 12 #fcfcfc #000000 #000000 0 1;
#X text 453 283 X-Y Mix;
#X text 103 238 Algorithm;
#X obj 710 322 ADSR~, f 13;
#X text 738 340 Amplifier;
#X obj 710 172 ADSR~, f 13;
#X obj 860 172 ADSR~, f 13;
#X text 731 190 Envelope A;
#X text 881 190 Envelope B;
#X obj 509 33 keyb0ard;
#X obj 708 247 else/knob 25 0 127 0 0 empty empty #dfdfdf #7c7c7c black 1 0 0 0 1 320 0 0 0;
#X obj 738 247 else/knob 25 0 127 0 0 empty empty #dfdfdf #7c7c7c black 1 0 0 0 1 320 0 0 0;
#X obj 768 247 else/knob 25 0 127 0 0 empty empty #dfdfdf #7c7c7c black 1 0 0 0 1 320 0 0 0;
#X obj 798 247 else/knob 25 0 127 0 0 empty empty #dfdfdf #7c7c7c black 1 0 0 0 1 320 0 0 0;
#X obj 708 97 else/knob 25 0 127 0 0 empty empty #dfdfdf #7c7c7c black 1 0 0 0 1 320 0 0 0;
#X obj 738 97 else/knob 25 0 127 0 0 empty empty #dfdfdf #7c7c7c black 1 0 0 0 1 320 0 0 0;
#X obj 768 97 else/knob 25 0 127 0 0 empty empty #dfdfdf #7c7c7c black 1 0 0 0 1 320 0 0 0;
#X obj 798 97 else/knob 25 0 127 0 0 empty empty #dfdfdf #7c7c7c black 1 0 0 0 1 320 0 0 0;
#X obj 858 97 else/knob 25 0 127 0 0 empty empty #dfdfdf #7c7c7c black 1 0 0 0 1 320 0 0 0;
#X obj 888 97 else/knob 25 0 127 0 0 empty empty #dfdfdf #7c7c7c black 1 0 0 0 1 320 0 0 0;
#X obj 918 97 else/knob 25 0 127 0 0 empty empty #dfdfdf #7c7c7c black 1 0 0 0 1 320 0 0 0;
#X obj 948 97 else/knob 25 0 127 0 0 empty empty #dfdfdf #7c7c7c black 1 0 0 0 1 320 0 0 0;
#X text 35 13 Operator C;
#X obj 54 37 else/knob 40 0.25 16 0 0.25 empty empty #dfdfdf #7c7c7c black 1 0 19 1 1 320 0 0 0.25;
#X text 139 13 Operator A;
#X text 55 77 Ratio;
#X obj 134 37 else/knob 40 0 127 0 0 empty empty #dfdfdf #7c7c7c black 1 0 19 1 1 320 0 0 0;
#X text 135 77 Ratio;
#X obj 184 37 else/knob 40 0 1 0 0 empty empty #dfdfdf #7c7c7c black 1 0 0 0 1 320 0 0 0;
#X text 185 77 Level;
#X obj 264 37 else/knob 40 0 127 0 0 empty empty #dfdfdf #7c7c7c black 1 0 19 1 1 320 0 0 0;
#X text 265 77 Ratio;
#X obj 314 67 else/knob 40 0 1 0 0 empty empty #dfdfdf #7c7c7c black 1 0 0 0 1 320 0 0 0;
#X text 355 107 Level;
#X text 269 13 Operator B1;
#X obj 264 97 else/knob 40 0 127 0 0 empty empty #dfdfdf #7c7c7c black 1 0 19 1 1 320 0 0 0;
#X text 265 137 Ratio;
#X text 269 153 Operator B2;
#X obj 94 127 else/knob 40 0 10 0 0 empty empty #dfdfdf #7c7c7c black 1 0 0 0 1 320 0 0 0;
#X text 74 167 Feedback;
#X obj 208 238 pack f f f f f f f f f;
#X obj 262 380 *~;
#X obj 208 200 b;
#X obj 263 426 output~;
#X obj 263 340 +~;
#X connect 0 0 44 0;
#X connect 1 0 2 0;
#X connect 1 1 3 0;
#X connect 2 0 48 0;
#X connect 3 0 48 1;
#X connect 4 0 2 1;
#X connect 4 0 3 1;
#X connect 7 0 45 1;
#X connect 9 0 1 1;
#X connect 10 0 1 2;
#X connect 13 0 9 0;
#X connect 13 0 44 4;
#X connect 13 0 46 0;
#X connect 13 0 10 0;
#X connect 13 0 7 0;
#X connect 14 0 7 1;
#X connect 15 0 7 2;
#X connect 16 0 7 3;
#X connect 17 0 7 4;
#X connect 18 0 9 1;
#X connect 19 0 9 2;
#X connect 20 0 9 3;
#X connect 21 0 9 4;
#X connect 22 0 10 1;
#X connect 23 0 10 2;
#X connect 24 0 10 3;
#X connect 25 0 10 4;
#X connect 27 0 44 5;
#X connect 27 0 46 0;
#X connect 30 0 44 2;
#X connect 30 0 46 0;
#X connect 32 0 44 3;
#X connect 32 0 46 0;
#X connect 34 0 44 8;
#X connect 34 0 46 0;
#X connect 36 0 44 7;
#X connect 36 0 46 0;
#X connect 39 0 44 6;
#X connect 39 0 46 0;
#X connect 42 0 44 1;
#X connect 42 0 46 0;
#X connect 44 0 1 0;
#X connect 45 0 47 0;
#X connect 45 0 47 1;
#X connect 46 0 44 0;
#X connect 48 0 45 0;
