#N canvas -1589 758 1000 609 12;
#X obj 463 81 hradio 18 1 0 8 $algo empty empty 0 -10 0 12 #fcfcfc #000000 #000000 0;
#X obj 443 133 hsl 162 19 0 1 0 0 $mix empty empty -2 -10 0 12 #fcfcfc #000000 #000000 0 1;
#X text 543 109 X-Y Mix;
#X text 551 56 Algorithm;
#X text 547 195 Amplifier;
#X text 156 267 Envelope A;
#X text 316 267 Envelope B;
#X obj 492 171 else/knob 25 0 127 0 0 $attack empty #dfdfdf #7c7c7c black 1 0 0 0 1 320 0 0 0 empty empty 0 0 0 0 0 0 0 0;
#X obj 522 171 else/knob 25 0 127 0 0 $decay empty #dfdfdf #7c7c7c black 1 0 0 0 1 320 0 0 0 empty empty 0 0 0 0 0 0 0 0;
#X obj 552 171 else/knob 25 0 1 0 0 $sustain empty #dfdfdf #7c7c7c black 1 0 0 0 1 320 0 0 0 empty empty 0 0 0 0 0 0 0 0;
#X obj 582 171 else/knob 25 0 5000 0 0 $release empty #dfdfdf #7c7c7c black 1 0 0 0 1 320 0 0 0 empty empty 0 0 0 0 0 0 0 0;
#X obj 118 243 else/knob 25 0 127 0 0 $attackA empty #dfdfdf #7c7c7c black 1 0 0 0 1 320 0 0 0 empty empty 0 0 0 0 0 0 0 0;
#X obj 148 243 else/knob 25 0 127 0 0 $decayA empty #dfdfdf #7c7c7c black 1 0 0 0 1 320 0 0 0 empty empty 0 0 0 0 0 0 0 0;
#X obj 178 243 else/knob 25 0 1 0 0 $sustainA empty #dfdfdf #7c7c7c black 1 0 0 0 1 320 0 0 0 empty empty 0 0 0 0 0 0 0 0;
#X obj 208 243 else/knob 25 0 5000 0 0 $releaseA empty #dfdfdf #7c7c7c black 1 0 0 0 1 320 0 0 0 empty empty 0 0 0 0 0 0 0 0;
#X obj 277 243 else/knob 25 0 127 0 0 $attackB empty #dfdfdf #7c7c7c black 1 0 0 0 1 320 0 0 0 empty empty 0 0 0 0 0 0 0 0;
#X obj 307 243 else/knob 25 0 127 0 0 $decayB empty #dfdfdf #7c7c7c black 1 0 0 0 1 320 0 0 0 empty empty 0 0 0 0 0 0 0 0;
#X obj 337 243 else/knob 25 0 1 0 0 $sustainB empty #dfdfdf #7c7c7c black 1 0 0 0 1 320 0 0 0 empty empty 0 0 0 0 0 0 0 0;
#X obj 367 243 else/knob 25 0 5000 0 0 $releaseB empty #dfdfdf #7c7c7c black 1 0 0 0 1 320 0 0 0 empty empty 0 0 0 0 0 0 0 0;
#X text 24 57 Operator C;
#X obj 40 121 else/knob 40 0.25 16 0 0.25 $ratioC empty #dfdfdf #7c7c7c black 1 0 19 0 1 320 0 0 0.25 empty empty 0 0 0 0 0 0 0 0;
#X text 139 57 Operator A;
#X text 40 159 Ratio;
#X obj 155 94 else/knob 40 0.25 16 0 0.25 $ratioA empty #dfdfdf #7c7c7c black 1 0 19 0 1 320 0 0 0.25 empty empty 0 0 0 0 0 0 0 0;
#X text 156 131 Ratio;
#X obj 156 164 else/knob 40 0 127 0 0 $levelA empty #dfdfdf #7c7c7c black 1 0 0 0 1 320 0 0 0 empty empty 0 0 0 0 0 0 0 0;
#X text 157 202 Level;
#X obj 289 88 else/knob 40 0 127 0 0 $ratioB1 empty #dfdfdf #7c7c7c black 1 0 19 0 1 320 0 0 0 empty empty 0 0 0 0 0 0 0 0;
#X text 292 124 Ratio;
#X obj 339 114 else/knob 40 0 127 0 0 $levelB empty #dfdfdf #7c7c7c black 1 0 0 0 1 320 0 0 0 empty empty 0 0 0 0 0 0 0 0;
#X text 339 151 Level;
#X text 294 57 Operator B1;
#X obj 290 149 else/knob 40 0.25 16 0 0.25 $ratioB2 empty #dfdfdf #7c7c7c black 1 0 19 0 1 320 0 0 0.25 empty empty 0 0 0 0 0 0 0 0;
#X text 293 185 Ratio;
#X text 293 206 Operator B2;
#X obj 562 228 else/knob 40 0 10 0 0 $fbk empty #dfdfdf #7c7c7c black 1 0 0 0 1 320 0 0 0 empty empty 0 0 0 0 0 0 0 0;
#X text 542 267 Feedback;
#X obj 710 111 output~;
#X obj 665 186 scope~ 200 100 20 3 128 -1 1 0 0 0 0 225 225 225 25 25 25 105 105 105 0 empty;
#X floatatom 665 168 5 0 0 0 - - - 12;
#X obj 727 37 r~ $output;
#X obj 674 398 knob 50 0 1 0 0 $chorusSend empty #191919 #696969 #E1E1E1 1 0 0 0 1 270 0 0 0 empty empty 2 12 6 -15 0 1 0 0;
#X obj 740 398 knob 50 0 1 0 0 $delaySend empty #191919 #696969 #E1E1E1 1 0 0 0 1 270 0 0 0 empty empty 2 12 6 -15 0 1 0 0;
#X obj 805 398 knob 50 0 1 0 0 $revSend empty #191919 #696969 #E1E1E1 1 0 0 0 1 270 0 0 0 empty empty 2 12 6 -15 0 1 0 0;
#X text 674 448 Chorus;
#X text 740 448 Delay;
#X text 805 448 Reverb;
#X obj 766 303 knob 50 -1 1 0 0 $pan empty #191919 #696969 #E1E1E1 1 0 0 0 1 270 0 0 0 empty empty 2 12 6 -15 0 1 0 0;
#X text 786 357 Pan;
#X obj 706 303 knob 50 0 1 0 0 $level empty #191919 #696969 #E1E1E1 1 0 0 0 1 270 0 0 0 empty empty 2 12 6 -15 0 1 0 0;
#X text 717 357 Level;
#X connect 39 0 38 0;
#X connect 40 0 38 0;
#X connect 40 0 37 0;
#X connect 40 0 37 1;
