#N canvas 569 316 661 660 12;
#X declare -path else;
#X declare -path cyclone;
#X obj 271 300 osc~;
#X obj 352 160 inlet;
#X obj 512 268 inlet;
#X text 512 251 level;
#X floatatom 352 244 5 0 0 0 - - - 12;
#X obj 443 269 inlet~;
#X text 457 252 ADSR;
#X obj 302 423 outlet~;
#X floatatom 237 477 5 0 0 0 - - - 12;
#X text 302 442 carrier;
#X obj 398 161 inlet;
#X text 398 144 ratio;
#X obj 352 216 *;
#X obj 488 16 declare -path else;
#X obj 488 41 declare -path cyclone;
#X obj 272 495 scope~ 200 100 5 3 8 -1 1 0 0 0 0 30 30 30 190 190 190 160 160 160 0 empty;
#X obj 398 186 t b f;
#X obj 271 387 *~ 1;
#X floatatom 512 299 5 0 0 0 - - - 12;
#X obj 322 121 inlet~;
#X obj 271 268 +~, f 12;
#X obj 303 84 inlet;
#X text 282 68 feedback;
#X obj 302 468 send~ feedback;
#X text 322 104 mod in;
#X obj 272 41 receive~ feedback;
#X obj 270 223 +~, f 8;
#X text 359 143 freq;
#X obj 390 269 sig~ 1;
#X obj 271 339 *~;
#X obj 271 158 *~ 0, f 5;
#X connect 0 0 29 0;
#X connect 1 0 12 0;
#X connect 2 0 18 0;
#X connect 4 0 20 1;
#X connect 5 0 29 1;
#X connect 8 0 15 0;
#X connect 10 0 16 0;
#X connect 12 0 4 0;
#X connect 16 0 12 0;
#X connect 16 1 12 1;
#X connect 17 0 7 0;
#X connect 17 0 15 0;
#X connect 17 0 23 0;
#X connect 18 0 17 1;
#X connect 19 0 26 1;
#X connect 20 0 0 0;
#X connect 21 0 30 1;
#X connect 25 0 30 0;
#X connect 26 0 20 0;
#X connect 28 0 29 1;
#X connect 29 0 17 0;
#X connect 30 0 26 0;
