#N canvas 1182 210 667 623 12;
#X declare -path else;
#X declare -path cyclone;
#X obj 366 358 osc~;
#X obj 366 157 inlet;
#X text 333 132 frequency;
#X obj 550 358 inlet;
#X text 550 333 level;
#X floatatom 366 240 5 0 0 0 - - - 12;
#X obj 107 118 loadbang;
#X obj 107 185 s bang;
#X obj 263 339 *~;
#X obj 263 258 inlet;
#X text 235 234 feedback;
#X floatatom 263 298 5 0 1 0 - - - 12;
#X obj 263 374 snapshot~;
#X obj 193 339 r bang;
#X obj 366 295 +;
#X floatatom 550 397 5 0 0 0 - - - 12;
#X obj 468 329 inlet~;
#X text 468 304 ADSR;
#X obj 467 491 outlet~;
#X obj 65 103 bng 25 250 50 0 empty empty empty 17 7 0 10 #191919 #e1e1e1 #e1e1e1;
#X obj 107 152 metro 0.1;
#X floatatom 119 443 5 0 0 0 - - - 12;
#X text 467 514 carrier;
#X obj 366 491 snapshot~;
#X text 366 547 modulation out;
#X obj 286 91 inlet;
#X floatatom 286 120 5 0 0 0 - - - 12;
#X text 286 69 modulation in;
#X obj 422 157 inlet;
#X text 422 132 ratio;
#X obj 366 212 *;
#X obj 366 523 outlet;
#X obj 488 16 declare -path else;
#X obj 488 41 declare -path cyclone;
#X obj 119 483 scope~ 200 100 150 3 8 -1 1 0 0 0 0 30 30 30 190 190 190 160 160 160 0 empty;
#X obj 422 182 t b f;
#X obj 366 445 *~ 1;
#X obj 366 397 *~ 1;
#X obj 286 205 t b f;
#X floatatom 366 325 5 0 0 0 - - - 0;
#X obj 468 358 snapshot~;
#X obj 418 329 r bang;
#X obj 286 177 +;
#X obj 286 147 t b f;
#X connect 0 0 37 0;
#X connect 1 0 30 0;
#X connect 3 0 15 0;
#X connect 5 0 14 0;
#X connect 6 0 20 0;
#X connect 8 0 12 0;
#X connect 9 0 11 0;
#X connect 11 0 8 0;
#X connect 12 0 42 0;
#X connect 13 0 12 0;
#X connect 13 0 23 0;
#X connect 14 0 39 0;
#X connect 15 0 36 1;
#X connect 16 0 40 0;
#X connect 19 0 20 0;
#X connect 20 0 7 0;
#X connect 21 0 34 0;
#X connect 23 0 31 0;
#X connect 25 0 26 0;
#X connect 26 0 43 0;
#X connect 28 0 35 0;
#X connect 30 0 5 0;
#X connect 35 0 30 0;
#X connect 35 1 30 1;
#X connect 36 0 18 0;
#X connect 36 0 23 0;
#X connect 36 0 34 0;
#X connect 37 0 8 1;
#X connect 37 0 36 0;
#X connect 38 0 14 0;
#X connect 38 1 14 1;
#X connect 39 0 0 0;
#X connect 41 0 40 0;
#X connect 42 0 38 0;
#X connect 43 0 42 0;
#X connect 43 1 42 1;
