#N canvas 1120 234 825 434 12;
#X declare -path else;
#X declare -path cyclone;
#X declare -path ../;
#X obj 24 68 inlet;
#X obj 81 68 inlet;
#X obj 132 68 inlet;
#X obj 183 68 inlet;
#X text 189 47 freq;
#X text 38 47 fbk;
#X text 74 47 ratioA;
#X text 138 47 levA;
#X obj 302 68 inlet;
#X text 288 48 ratioB2;
#X obj 358 68 inlet;
#X text 365 48 levB;
#X obj 421 68 inlet;
#X text 407 48 ratioB1;
#X obj 239 68 inlet;
#X text 232 48 ratioC;
#X floatatom 24 95 5 0 0 0 - - - 0;
#X floatatom 81 95 5 0 0 0 - - - 0;
#X floatatom 132 95 5 0 0 0 - - - 0;
#X floatatom 183 95 5 0 0 0 - - - 0;
#X floatatom 239 95 5 0 0 0 - - - 0;
#X floatatom 302 95 5 0 0 0 - - - 0;
#X floatatom 358 95 5 0 0 0 - - - 0;
#X floatatom 421 95 5 0 0 0 - - - 0;
#X obj 485 94 inlet~;
#X obj 545 94 inlet~;
#X text 485 74 ADSR A;
#X text 545 74 ADSR B;
#X obj 648 6 declare -path else;
#X obj 648 31 declare -path cyclone;
#X floatatom 609 104 5 0 0 0 - - - 12;
#X obj 609 135 scope~ 200 100 150 3 8 -1 1 0 0 0 0 30 30 30 190 190 190 160 160 160 0 empty;
#X floatatom 609 244 5 0 0 0 - - - 12;
#X obj 609 275 scope~ 200 100 150 3 8 -1 1 0 0 0 0 30 30 30 190 190 190 160 160 160 0 empty;
#X obj 112 408 outlet~;
#X obj 322 407 outlet~;
#X text 317 219 B2;
#X text 298 269 B1;
#X text 115 219 A;
#X text 95 269 C;
#X text 96 409 X;
#X text 306 408 Y;
#X text 222 8 ALGO 7;
#X obj 112 339 +~;
#X obj 322 338 +~;
#X obj 131 218 operator~;
#X obj 111 268 operator~;
#X obj 341 218 operator~;
#X obj 321 268 operator~;
#X obj 649 56 declare -path ../;
#X obj 131 303 /~;
#X obj 298 303 /~;
#X obj 357 303 /~;
#X obj 112 372 norm~;
#X obj 322 372 norm~;
#X connect 0 0 16 0;
#X connect 1 0 17 0;
#X connect 2 0 18 0;
#X connect 3 0 19 0;
#X connect 8 0 21 0;
#X connect 10 0 22 0;
#X connect 12 0 23 0;
#X connect 14 0 20 0;
#X connect 16 0 45 0;
#X connect 17 0 45 3;
#X connect 18 0 45 5;
#X connect 18 0 50 1;
#X connect 19 0 45 2;
#X connect 19 0 46 2;
#X connect 19 0 47 2;
#X connect 19 0 48 2;
#X connect 20 0 46 3;
#X connect 21 0 47 3;
#X connect 22 0 47 5;
#X connect 22 0 52 1;
#X connect 22 0 48 5;
#X connect 22 0 51 1;
#X connect 23 0 48 3;
#X connect 24 0 33 0;
#X connect 24 0 45 4;
#X connect 25 0 31 0;
#X connect 25 0 47 4;
#X connect 25 0 48 4;
#X connect 30 0 31 0;
#X connect 32 0 33 0;
#X connect 43 0 53 0;
#X connect 44 0 54 0;
#X connect 45 0 46 1;
#X connect 45 0 50 0;
#X connect 46 0 43 0;
#X connect 47 0 52 0;
#X connect 47 0 48 1;
#X connect 48 0 51 0;
#X connect 50 0 43 1;
#X connect 51 0 44 0;
#X connect 52 0 44 1;
#X connect 53 0 34 0;
#X connect 54 0 35 0;
